<?xml version="1.0" standalone="no"?>
<!DOCTYPE svg PUBLIC "-//W3C//DTD SVG 20010904//EN"
 "http://www.w3.org/TR/2001/REC-SVG-20010904/DTD/svg10.dtd">
<svg version="1.0" xmlns="http://www.w3.org/2000/svg"
 width="381.000000pt" height="193.000000pt" viewBox="0 0 381.000000 193.000000"
 preserveAspectRatio="xMidYMid meet">

<g transform="translate(0.000000,193.000000) scale(0.100000,-0.100000)"
fill="#000000" stroke="none">
<path d="M1874 1400 c-154 -16 -196 -31 -624 -223 -19 -9 -57 -19 -83 -22 -40
-5 -47 -9 -42 -23 5 -14 4 -15 -6 -4 -7 6 -30 12 -51 12 -24 0 -38 -5 -38 -12
0 -9 -4 -8 -10 2 -9 13 -12 13 -23 -1 -8 -11 -37 -18 -92 -23 -234 -21 -423
-53 -493 -84 -21 -8 -43 -17 -51 -18 -33 -6 -67 -44 -90 -100 -28 -69 -38
-162 -23 -201 7 -15 13 -44 14 -64 2 -32 4 -35 26 -31 17 3 23 1 18 -7 -4 -6
-18 -11 -32 -11 -21 0 -23 -2 -12 -19 16 -27 82 -41 212 -48 l109 -6 51 -53
c59 -60 96 -74 201 -74 85 0 134 21 189 79 l40 41 605 -2 c333 -1 559 -5 501
-9 -69 -4 -36 -5 95 -3 110 2 227 10 260 17 l60 12 30 -44 c19 -27 51 -56 84
-74 47 -27 63 -31 130 -30 47 0 91 7 116 17 48 20 109 78 126 118 10 24 17 29
37 25 26 -5 300 46 340 63 13 6 21 14 18 19 -3 5 1 11 8 14 8 3 16 1 18 -5 7
-21 30 4 25 28 -2 13 2 29 9 35 16 13 18 58 4 114 -6 22 -12 65 -15 95 -7 76
-32 156 -56 179 -11 10 -48 24 -81 31 -38 8 -55 16 -45 19 10 4 -34 22 -110
45 -71 21 -177 53 -238 72 -98 30 -338 97 -390 110 -11 2 -89 13 -173 24 -177
23 -432 32 -548 20z m511 -69 c204 -30 566 -125 650 -169 l30 -16 -30 -7 c-16
-4 -64 -7 -107 -8 -91 -1 -289 -34 -347 -57 -23 -9 -47 -24 -54 -33 -6 -10
-24 -26 -39 -35 l-28 -18 11 30 c6 17 17 36 25 43 27 22 2 29 -107 29 -85 0
-109 3 -109 13 0 11 29 15 123 20 153 8 216 25 251 71 l26 35 -56 20 c-80 31
-280 68 -429 82 -207 18 -405 -2 -539 -56 -36 -14 -71 -23 -77 -19 -7 4 -9 3
-6 -3 4 -6 -7 -16 -24 -24 -17 -7 -70 -36 -117 -66 -47 -29 -86 -52 -88 -50
-2 1 28 23 66 47 39 24 68 45 66 47 -2 2 -54 -21 -116 -52 -62 -31 -131 -60
-154 -65 -29 -6 -3 -8 94 -8 82 0 125 3 110 8 -24 8 -23 8 8 9 22 1 32 -4 32
-13 0 -21 -6 -23 -104 -31 -73 -6 -87 -5 -80 7 6 10 5 11 -7 2 -8 -7 -82 -14
-176 -18 -172 -6 -356 -27 -462 -52 -35 -8 -66 -13 -68 -10 -6 6 115 44 182
56 33 6 112 17 175 25 148 18 296 42 340 56 19 7 83 36 142 65 209 105 327
146 470 164 104 13 371 3 523 -19z m-791 -167 c27 -10 18 -19 -22 -21 -34 -2
-36 -1 -18 13 23 16 20 16 40 8z m1713 -30 c-3 -3 -12 -4 -19 -1 -8 3 -5 6 6
6 11 1 17 -2 13 -5z m-1708 -20 c2 -2 -26 -4 -62 -4 -37 0 -67 4 -67 9 0 8
119 3 129 -5z m664 -9 c9 -21 -18 -23 -368 -34 -297 -9 -375 -7 -375 8 0 4 13
6 30 3 16 -2 37 -1 47 2 17 7 140 12 457 21 92 2 171 6 174 9 10 11 30 6 35
-9z m844 -46 c70 -6 146 -15 168 -19 28 -6 14 -7 -45 -3 -47 3 -168 11 -270
18 -167 11 -175 12 -83 14 56 0 160 -4 230 -10z m270 5 c-3 -3 -12 -4 -19 -1
-8 3 -5 6 6 6 11 1 17 -2 13 -5z m-2817 -48 c0 -5 -96 -33 -139 -40 -58 -10
-28 4 50 24 86 21 89 21 89 16z m924 -15 c-5 -5 -162 -11 -349 -14 -286 -4
-349 -7 -395 -22 -87 -27 -162 -87 -209 -165 -29 -48 -27 -30 3 29 19 36 40
58 88 89 88 57 129 72 222 81 115 11 652 13 640 2z m421 4 c-23 -8 -314 -11
-309 -3 3 4 76 8 162 7 86 0 153 -2 147 -4z m303 -2 c-21 -2 -55 -2 -75 0 -21
2 -4 4 37 4 41 0 58 -2 38 -4z m-31 -19 c-3 -3 -12 -4 -19 -1 -8 3 -5 6 6 6
11 1 17 -2 13 -5z m779 -29 c39 -16 94 -53 59 -40 -11 4 -54 18 -95 31 -67 20
-71 23 -37 23 21 1 53 -6 73 -14z m-1808 -2 c-10 -2 -28 -2 -40 0 -13 2 -5 4
17 4 22 1 32 -1 23 -4z m-815 -27 c-10 -13 -20 -22 -22 -20 -4 4 29 44 36 44
2 0 -4 -11 -14 -24z m117 18 c0 -14 -14 -33 -21 -28 -5 3 -6 -2 -3 -10 3 -8
-3 -19 -15 -26 -14 -7 -21 -7 -21 0 0 5 6 10 13 10 8 0 7 4 -3 10 -10 6 -11
10 -2 10 6 0 12 5 12 11 0 5 -6 7 -12 3 -10 -6 -10 -5 -1 7 9 11 53 22 53 13z
m1934 -54 c-15 -22 -29 -40 -31 -40 -5 0 3 15 29 53 30 43 31 32 2 -13z
m-2032 8 c-6 -6 -15 -8 -19 -4 -4 4 -1 11 7 16 19 12 27 3 12 -12z m3095 6
c-3 -3 -12 -4 -19 -1 -8 3 -5 6 6 6 11 1 17 -2 13 -5z m-3107 -30 c0 -2 -7 -4
-15 -4 -8 0 -15 4 -15 10 0 5 7 7 15 4 8 -4 15 -8 15 -10z m40 0 c0 -8 -4 -12
-10 -9 -5 3 -10 10 -10 16 0 5 5 9 10 9 6 0 10 -7 10 -16z m-80 -24 c0 -5 -4
-10 -10 -10 -5 0 -10 5 -10 10 0 6 5 10 10 10 6 0 10 -4 10 -10z m30 6 c0 -3
-4 -8 -10 -11 -5 -3 -10 -1 -10 4 0 6 5 11 10 11 6 0 10 -2 10 -4z m428 -34
l-47 -15 36 -44 c41 -50 51 -53 46 -15 -3 15 0 38 6 52 8 21 10 15 10 -37 1
-36 5 -63 11 -63 7 0 8 18 4 49 -4 31 -2 51 5 55 7 5 11 -8 11 -40 l0 -48 40
39 41 40 -48 21 c-26 12 -42 23 -34 23 44 3 161 -86 161 -121 0 -7 -13 3 -28
21 l-28 33 -28 -42 c-15 -23 -26 -44 -24 -46 2 -2 21 1 42 7 20 6 43 8 49 6 7
-2 -14 -10 -46 -17 -52 -12 -86 -30 -57 -30 29 0 106 24 116 37 26 31 32 -77
9 -135 -61 -144 -264 -166 -356 -39 -33 46 -36 57 -12 57 10 0 42 10 71 22 45
19 56 20 74 9 22 -14 38 -7 21 10 -6 6 -9 18 -6 25 7 18 33 18 33 0 0 -8 7
-13 15 -12 28 4 28 16 1 41 -32 29 -36 30 -36 10 0 -10 -7 -15 -17 -13 -13 2
-18 -3 -17 -20 0 -12 -4 -21 -10 -19 -6 2 -42 -7 -80 -20 -38 -12 -71 -23 -73
-23 -6 0 -1 95 6 114 6 16 9 17 13 4 4 -8 26 -20 51 -26 24 -7 52 -14 61 -18
9 -3 16 -2 16 3 0 6 -27 18 -59 28 -33 10 -62 23 -65 30 -5 13 31 75 44 75 5
0 27 -26 50 -57 22 -31 47 -58 55 -59 15 -2 -27 64 -71 112 l-22 23 37 15 c20
8 45 15 56 15 11 -1 -1 -8 -27 -17z m2032 -7 c-24 -8 -46 -12 -49 -10 -7 7 42
24 69 24 17 0 11 -5 -20 -14z m140 0 c32 -18 16 -19 -35 0 -32 11 -35 14 -15
14 14 0 36 -6 50 -14z m-95 -65 c-5 -41 -4 -60 4 -60 7 0 11 22 11 55 0 34 4
55 11 55 8 0 10 -15 7 -45 -3 -25 -3 -45 0 -45 4 0 24 17 46 38 l40 37 -40
-50 c-52 -65 -57 -74 -40 -71 22 3 99 103 91 118 -3 7 10 -5 29 -26 20 -22 36
-44 36 -50 -1 -10 -20 11 -41 44 -7 12 -13 10 -35 -15 -14 -16 -30 -38 -35
-48 -9 -16 -8 -18 8 -13 10 3 32 8 48 11 24 4 22 2 -9 -10 -61 -23 -116 -28
-116 -10 0 17 -2 17 -24 9 -9 -3 -13 -11 -9 -17 3 -5 1 -7 -5 -3 -6 3 -14 1
-18 -5 -4 -6 -9 -7 -13 -2 -3 5 -32 20 -64 32 -31 13 -60 27 -62 31 -5 9 42
70 54 70 3 0 24 -25 46 -55 36 -49 55 -66 55 -49 0 3 -13 24 -28 47 -46 68
-47 75 -4 27 l41 -45 1 37 c0 37 8 68 17 68 3 0 2 -27 -2 -60z m-2489 -34 c8
-9 9 -11 2 -6 -7 6 -23 10 -37 11 -15 0 -35 5 -46 10 -15 7 -9 8 24 5 24 -2
50 -12 57 -20z m3065 -7 c-25 -10 -233 -49 -263 -49 -10 0 -18 6 -18 14 0 10
28 17 103 26 56 6 109 13 117 15 8 1 31 3 50 3 32 1 33 0 11 -9z m-696 -49
c32 -11 65 -26 73 -32 18 -15 22 -15 33 4 7 10 9 9 9 -4 0 -10 4 -18 10 -18 5
0 8 6 6 13 -1 6 -1 9 1 4 3 -4 9 -5 14 -1 5 3 9 1 9 -5 0 -15 -32 -21 -65 -12
-22 6 -48 2 -99 -16 -38 -12 -71 -23 -73 -23 -6 0 -3 78 3 94 8 20 9 20 79 -4z
m315 1 c-8 -5 -39 -14 -68 -22 l-53 -13 43 -17 c90 -35 88 -35 89 8 1 27 3 31
6 13 12 -62 -55 -168 -124 -197 -49 -20 -130 -16 -181 8 -41 20 -102 88 -102
113 0 6 6 2 12 -9 6 -11 20 -30 31 -42 19 -21 21 -22 34 -5 13 15 13 15 4 -5
-18 -36 5 -36 32 -1 44 59 58 98 36 98 -5 0 -8 -4 -5 -9 3 -4 -4 -17 -17 -27
l-22 -19 19 23 c22 26 16 27 -49 7 -67 -20 -66 -13 0 14 39 16 64 21 83 16 61
-17 73 -15 83 14 9 25 19 30 77 44 79 18 92 19 72 8z m-490 -27 c0 -13 -250
-22 -895 -30 -264 -3 -477 -2 -500 3 -28 6 13 8 130 6 168 -4 611 10 835 26
166 11 430 9 430 -5z m-1117 -11 c-29 -2 -78 -2 -110 0 -32 2 -8 3 52 3 61 0
87 -1 58 -3z m1962 -23 c-3 -5 -12 -10 -18 -10 -7 0 -6 4 3 10 19 12 23 12 15
0z"/>
<path d="M1510 1230 c-19 -11 -30 -19 -25 -19 6 0 26 8 45 19 19 11 31 19 25
19 -5 0 -26 -8 -45 -19z"/>
<path d="M2679 1184 c-19 -19 -53 -41 -75 -49 -24 -9 -31 -14 -19 -15 26 0 94
43 118 76 25 34 18 30 -24 -12z"/>
<path d="M2513 1113 c9 -2 23 -2 30 0 6 3 -1 5 -18 5 -16 0 -22 -2 -12 -5z"/>
<path d="M889 743 c-48 -64 -51 -70 -34 -70 8 0 13 2 10 5 -2 3 14 25 35 50
22 25 40 49 40 53 0 20 -18 6 -51 -38z"/>
<path d="M661 751 c-17 -23 -19 -32 -9 -36 7 -3 32 -11 56 -20 l43 -14 -17 27
c-9 16 -24 39 -34 51 l-17 23 -22 -31z"/>
<path d="M620 633 l0 -40 60 21 61 21 -32 13 c-17 7 -44 16 -60 19 -28 5 -29
4 -29 -34z"/>
<path d="M960 650 c-8 -5 -31 -10 -50 -10 -33 -1 -31 -2 29 -27 36 -15 60 -28
54 -30 -6 -2 -34 6 -63 17 -68 27 -75 19 -13 -15 44 -24 39 -26 -19 -8 l-22 6
23 -34 23 -34 -26 28 c-15 16 -25 31 -22 35 2 4 -4 15 -14 25 -15 16 -19 16
-30 2 -10 -12 -10 -15 3 -15 8 0 20 -15 28 -32 26 -68 79 -121 64 -65 -5 19
-5 20 5 4 9 -15 14 -16 26 -6 27 22 38 51 23 60 -11 7 -11 9 2 9 20 0 29 20
29 66 0 36 -18 45 -50 24z"/>
<path d="M740 588 c-14 -6 -45 -16 -69 -22 l-43 -12 27 -32 c21 -25 30 -30 40
-22 11 9 12 6 7 -12 -5 -20 -4 -21 11 -10 9 8 30 34 46 58 16 25 31 39 33 33
2 -6 -13 -30 -34 -53 -21 -22 -38 -44 -38 -48 0 -5 54 -28 66 -28 2 0 5 24 7
53 l3 52 2 -52 c3 -70 22 -68 22 1 0 34 5 56 13 59 14 5 5 17 -15 21 -7 1 -22
7 -33 13 -14 7 -28 7 -45 1z"/>
<path d="M837 543 c-4 -3 -7 -29 -7 -56 l0 -49 32 6 c41 8 45 13 30 34 -7 9
-18 29 -25 45 -12 28 -18 32 -30 20z"/>
<path d="M2686 748 c-9 -12 -16 -26 -16 -30 0 -9 33 -23 76 -34 l25 -6 -28 46
c-15 25 -31 46 -35 46 -4 0 -14 -10 -22 -22z"/>
<path d="M2646 662 c-3 -3 -6 -23 -6 -45 0 -30 3 -37 13 -30 6 5 31 15 55 23
23 7 42 16 42 20 0 9 -98 39 -104 32z"/>
<path d="M2939 581 c55 -28 56 -41 6 -48 -17 -2 -17 -1 4 11 l24 13 -24 6
c-13 3 -27 5 -30 4 -3 -1 -13 4 -22 11 -10 9 -17 10 -22 2 -3 -5 -3 -10 2 -10
4 0 9 -12 10 -27 l1 -27 -16 27 c-23 38 -40 34 -45 -10 l-4 -38 -1 39 -2 39
-41 -58 c-44 -63 -43 -69 20 -81 23 -5 36 -2 42 7 7 12 9 12 9 0 0 -19 58 -6
85 19 12 11 24 18 27 15 3 -3 18 9 32 26 21 25 24 34 14 40 -10 7 -9 9 5 9 35
0 15 17 -45 38 -84 30 -95 27 -29 -7z m-19 -102 c15 -28 5 -23 -15 7 -9 15
-12 23 -6 20 6 -4 16 -16 21 -27z"/>
<path d="M893 1123 c9 -2 23 -2 30 0 6 3 -1 5 -18 5 -16 0 -22 -2 -12 -5z"/>
<path d="M3368 1123 c7 -3 16 -2 19 1 4 3 -2 6 -13 5 -11 0 -14 -3 -6 -6z"/>
<path d="M783 1113 c9 -2 23 -2 30 0 6 3 -1 5 -18 5 -16 0 -22 -2 -12 -5z"/>
<path d="M3408 1113 c7 -3 16 -2 19 1 4 3 -2 6 -13 5 -11 0 -14 -3 -6 -6z"/>
<path d="M688 1103 c7 -3 16 -2 19 1 4 3 -2 6 -13 5 -11 0 -14 -3 -6 -6z"/>
<path d="M628 1093 c7 -3 16 -2 19 1 4 3 -2 6 -13 5 -11 0 -14 -3 -6 -6z"/>
<path d="M1623 493 c43 -2 110 -2 150 0 40 1 5 3 -78 3 -82 0 -115 -2 -72 -3z"/>
</g>
</svg>
