<?xml version="1.0" standalone="no"?>
<!DOCTYPE svg PUBLIC "-//W3C//DTD SVG 20010904//EN"
 "http://www.w3.org/TR/2001/REC-SVG-20010904/DTD/svg10.dtd">
<svg version="1.0" xmlns="http://www.w3.org/2000/svg"
 width="50.000000pt" height="50.000000pt" viewBox="0 0 50.000000 50.000000"
 preserveAspectRatio="xMidYMid meet">

<g transform="translate(0.000000,50.000000) scale(0.100000,-0.100000)"
fill="#000000" stroke="none">
<path d="M209 443 c-8 -17 0 -47 11 -45 8 2 24 -2 37 -9 18 -10 28 -10 46 0
13 7 29 11 37 9 8 -2 14 6 14 20 0 23 -3 24 -72 25 -40 1 -73 1 -73 0z"/>
<path d="M164 321 c-18 -18 -36 -31 -41 -28 -23 15 -35 -13 -35 -82 0 -40 2
-74 5 -77 2 -3 15 -7 28 -9 13 -3 33 -16 44 -29 18 -22 29 -25 93 -27 l73 -2
49 48 c27 27 48 51 47 54 -1 3 3 7 8 8 6 2 10 -7 10 -19 0 -17 6 -22 25 -22
25 0 25 1 25 84 0 83 0 84 -25 84 -19 0 -25 -5 -25 -22 0 -43 -20 -26 -23 20
l-3 47 -112 3 -112 3 -31 -34z m151 -21 c4 -6 -3 -26 -15 -45 -16 -25 -18 -33
-7 -29 31 11 27 -18 -8 -66 -20 -28 -39 -50 -42 -50 -6 0 2 45 13 74 5 13 4
17 -3 13 -6 -4 -18 -4 -27 -1 -14 5 -13 11 5 47 12 23 26 48 31 55 13 15 44
16 53 2z"/>
<path d="M4 285 c-3 -7 -4 -45 -2 -86 3 -71 4 -74 28 -73 24 0 25 1 25 83 0
81 -1 84 -24 86 -12 1 -25 -4 -27 -10z"/>
</g>
</svg>
