<?xml version="1.0" standalone="no"?>
<!DOCTYPE svg PUBLIC "-//W3C//DTD SVG 20010904//EN"
 "http://www.w3.org/TR/2001/REC-SVG-20010904/DTD/svg10.dtd">
<svg version="1.0" xmlns="http://www.w3.org/2000/svg"
 width="50.000000pt" height="50.000000pt" viewBox="0 0 50.000000 50.000000"
 preserveAspectRatio="xMidYMid meet">

<g transform="translate(0.000000,50.000000) scale(0.100000,-0.100000)"
fill="#000000" stroke="none">
<path d="M152 397 l-72 -72 0 -136 c0 -92 4 -139 12 -147 17 -17 299 -17 316
0 17 17 17 399 0 416 -7 7 -44 12 -98 12 l-86 0 -72 -73z m198 28 c-21 -22
-32 -25 -93 -25 l-70 0 23 25 c21 22 32 25 93 25 l70 0 -23 -25z m-67 -167
c31 -48 34 -74 10 -100 -32 -36 -103 -11 -103 37 0 20 48 105 60 105 3 0 18
-19 33 -42z"/>
<path d="M90 415 c-18 -20 -21 -28 -12 -37 10 -10 18 -6 38 14 15 14 23 31 20
37 -11 17 -20 14 -46 -14z"/>
</g>
</svg>
