<?xml version="1.0" standalone="no"?>
<!DOCTYPE svg PUBLIC "-//W3C//DTD SVG 20010904//EN"
 "http://www.w3.org/TR/2001/REC-SVG-20010904/DTD/svg10.dtd">
<svg version="1.0" xmlns="http://www.w3.org/2000/svg"
 width="256.000000pt" height="256.000000pt" viewBox="0 0 256.000000 256.000000"
 preserveAspectRatio="xMidYMid meet">

<g transform="translate(0.000000,256.000000) scale(0.100000,-0.100000)"
fill="#000000" stroke="none">
<path d="M1048 2298 c-11 -13 -18 -39 -18 -65 0 -24 -4 -43 -10 -43 -5 0 -10
-22 -10 -48 0 -40 -5 -53 -28 -75 -15 -15 -37 -27 -49 -27 -11 0 -26 -7 -33
-15 -7 -8 -19 -15 -27 -15 -7 0 -26 -11 -41 -25 -15 -14 -32 -25 -38 -25 -6 0
-17 -7 -24 -15 -16 -19 -57 -19 -94 0 -15 8 -38 15 -50 15 -11 0 -30 7 -40 15
-11 8 -36 15 -55 15 -46 -1 -79 -29 -111 -95 -5 -11 -23 -42 -39 -70 -17 -27
-39 -69 -51 -92 -11 -23 -24 -45 -30 -48 -5 -3 -10 -30 -10 -59 l0 -53 80 -74
80 -74 0 -145 0 -145 -80 -74 -80 -73 0 -54 c0 -29 5 -56 10 -59 6 -3 19 -25
30 -48 12 -23 34 -64 51 -92 16 -27 34 -59 39 -70 32 -66 65 -94 111 -95 19 0
44 7 55 15 10 8 31 15 46 15 15 0 29 4 32 9 4 5 24 12 47 16 30 5 45 3 58 -9
10 -9 22 -16 27 -16 5 0 21 -11 36 -25 15 -14 34 -25 41 -25 8 0 20 -7 27 -15
7 -8 22 -15 33 -15 12 0 34 -12 49 -27 23 -22 28 -35 28 -75 0 -30 4 -47 10
-43 6 4 10 -13 10 -43 0 -33 6 -56 19 -70 18 -21 26 -22 230 -22 198 0 212 1
231 20 15 15 20 33 20 71 0 31 4 48 10 44 6 -4 10 13 10 43 0 40 5 53 28 75
15 15 37 27 49 27 11 0 26 7 33 15 7 8 19 15 27 15 7 0 26 11 41 25 15 14 32
25 38 25 6 0 17 7 24 15 16 19 57 19 94 0 15 -8 38 -15 50 -15 11 0 30 -7 40
-15 11 -8 36 -15 55 -15 47 1 82 32 110 97 6 11 15 24 20 28 6 3 11 15 11 26
0 10 3 19 8 19 8 0 12 8 49 83 13 25 27 49 33 52 5 3 10 30 10 59 l0 53 -80
74 -80 74 0 145 0 145 80 74 80 74 0 53 c0 29 -5 56 -10 59 -6 3 -19 25 -31
48 -11 23 -33 65 -49 92 -16 28 -34 59 -40 70 -35 69 -65 94 -111 95 -19 0
-44 -7 -55 -15 -10 -8 -29 -15 -40 -15 -12 0 -35 -7 -50 -15 -37 -19 -78 -19
-94 0 -7 8 -18 15 -24 15 -6 0 -23 11 -38 25 -15 14 -34 25 -41 25 -8 0 -20 7
-27 15 -7 8 -22 15 -34 15 -12 0 -34 13 -49 28 -21 22 -27 38 -27 75 0 26 -4
47 -10 47 -5 0 -10 20 -10 43 0 29 -7 52 -19 65 -18 21 -26 22 -232 22 -208 0
-214 -1 -231 -22z m337 -589 c5 -5 21 -9 36 -9 15 0 31 -4 34 -10 3 -5 22 -17
41 -26 45 -22 146 -123 168 -168 9 -19 21 -38 26 -41 6 -3 10 -21 10 -40 0
-18 5 -35 12 -37 17 -6 17 -183 0 -200 -7 -7 -12 -25 -12 -40 0 -15 -4 -28 -8
-28 -5 0 -16 -18 -26 -40 -22 -51 -125 -154 -176 -176 -22 -10 -40 -21 -40
-26 0 -4 -13 -8 -28 -8 -15 0 -33 -5 -40 -12 -16 -16 -194 -16 -200 0 -2 7
-19 12 -37 12 -19 0 -37 4 -40 10 -3 5 -21 17 -40 26 -47 22 -147 121 -168
166 -10 20 -22 40 -27 43 -6 3 -10 19 -10 34 0 15 -5 32 -12 39 -8 8 -12 45
-12 102 0 57 4 94 12 102 7 7 12 24 12 39 0 15 4 31 10 34 5 3 17 22 27 43 22
47 118 143 165 165 21 10 40 22 43 27 3 6 19 10 34 10 15 0 31 4 37 9 21 21
187 21 209 0z"/>
</g>
</svg>
