<?xml version="1.0" standalone="no"?>
<!DOCTYPE svg PUBLIC "-//W3C//DTD SVG 20010904//EN"
 "http://www.w3.org/TR/2001/REC-SVG-20010904/DTD/svg10.dtd">
<svg version="1.0" xmlns="http://www.w3.org/2000/svg"
 width="50.000000pt" height="50.000000pt" viewBox="0 0 50.000000 50.000000"
 preserveAspectRatio="xMidYMid meet">

<g transform="translate(0.000000,50.000000) scale(0.100000,-0.100000)"
fill="#000000" stroke="none">
<path d="M144 438 c-25 -12 -44 -48 -44 -84 0 -30 58 -94 85 -94 9 0 15 -6 12
-12 -2 -7 -11 -11 -18 -10 -61 16 -81 14 -104 -8 -54 -50 -9 -130 71 -130 30
0 94 58 94 85 0 9 6 15 13 12 6 -2 10 -11 9 -18 -16 -61 -14 -81 8 -104 50
-54 130 -9 130 71 0 30 -58 94 -85 94 -9 0 -15 6 -12 13 2 6 11 10 18 9 61
-16 81 -14 104 8 54 50 9 130 -71 130 -30 0 -94 -58 -94 -85 0 -9 -6 -15 -12
-12 -7 2 -11 11 -10 18 16 61 14 81 -8 104 -25 26 -51 30 -86 13z m122 -179
c10 -17 -13 -36 -27 -22 -12 12 -4 33 11 33 5 0 12 -5 16 -11z"/>
</g>
</svg>
