<?xml version="1.0" standalone="no"?>
<!DOCTYPE svg PUBLIC "-//W3C//DTD SVG 20010904//EN"
 "http://www.w3.org/TR/2001/REC-SVG-20010904/DTD/svg10.dtd">
<svg version="1.0" xmlns="http://www.w3.org/2000/svg"
 width="50.000000pt" height="50.000000pt" viewBox="0 0 50.000000 50.000000"
 preserveAspectRatio="xMidYMid meet">

<g transform="translate(0.000000,50.000000) scale(0.100000,-0.100000)"
fill="#000000" stroke="none">
<path d="M183 431 c-10 -9 -13 -35 -12 -80 2 -57 -2 -71 -25 -106 -22 -32 -26
-47 -21 -75 13 -75 63 -113 138 -107 63 5 97 38 107 102 6 41 4 51 -21 88 -27
41 -28 42 -7 50 20 7 20 7 -3 27 l-24 20 23 19 c22 19 22 20 2 26 -11 3 -20
15 -20 26 0 10 -3 19 -7 20 -71 5 -119 2 -130 -10z m121 -17 c3 -9 6 -42 6
-74 0 -47 5 -67 25 -96 14 -20 25 -46 25 -58 0 -35 -38 -86 -75 -102 -30 -12
-40 -12 -67 -1 -74 32 -96 98 -54 160 21 30 26 50 26 97 0 84 4 90 60 90 34 0
50 -4 54 -16z"/>
<path d="M240 305 c0 -44 -4 -59 -25 -79 -45 -45 -27 -96 35 -96 62 0 80 51
35 96 -21 20 -25 35 -25 79 0 30 -4 55 -10 55 -5 0 -10 -25 -10 -55z"/>
</g>
</svg>
