<?xml version="1.0" standalone="no"?>
<!DOCTYPE svg PUBLIC "-//W3C//DTD SVG 20010904//EN"
 "http://www.w3.org/TR/2001/REC-SVG-20010904/DTD/svg10.dtd">
<svg version="1.0" xmlns="http://www.w3.org/2000/svg"
 width="256.000000pt" height="256.000000pt" viewBox="0 0 256.000000 256.000000"
 preserveAspectRatio="xMidYMid meet">

<g transform="translate(0.000000,256.000000) scale(0.100000,-0.100000)"
fill="#000000" stroke="none">
<path d="M1219 2303 c-50 -8 -73 -46 -77 -128 l-4 -73 -132 -4 c-137 -4 -172
-14 -224 -62 -57 -51 -62 -77 -62 -311 0 -234 5 -260 62 -311 59 -54 59 -54
463 -54 350 0 378 1 413 19 47 24 77 56 97 103 12 30 15 80 15 245 0 182 -3
213 -19 249 -39 86 -129 125 -281 124 -52 -1 -101 -1 -107 -1 -9 1 -13 20 -13
61 0 75 -20 117 -65 136 -19 8 -36 13 -37 13 -2 -1 -15 -4 -29 -6z m-122 -503
c61 -37 53 -128 -13 -156 -106 -44 -177 106 -76 160 36 20 51 20 89 -4z m390
0 c58 -35 55 -118 -5 -153 -58 -34 -132 9 -132 76 0 36 12 55 50 81 32 21 48
20 87 -4z"/>
<path d="M1110 1269 c-106 -15 -165 -27 -210 -44 -25 -9 -54 -19 -65 -22 -27
-8 -141 -77 -190 -116 -106 -82 -217 -247 -244 -363 -23 -97 29 -209 122 -260
l52 -29 670 0 c668 0 670 0 710 22 73 39 115 93 135 175 10 38 9 56 -4 100
-47 163 -190 339 -345 426 -169 94 -430 140 -631 111z"/>
</g>
</svg>
