<?xml version="1.0" standalone="no"?>
<!DOCTYPE svg PUBLIC "-//W3C//DTD SVG 20010904//EN"
 "http://www.w3.org/TR/2001/REC-SVG-20010904/DTD/svg10.dtd">
<svg version="1.0" xmlns="http://www.w3.org/2000/svg"
 width="254.000000pt" height="254.000000pt" viewBox="0 0 254.000000 254.000000"
 preserveAspectRatio="xMidYMid meet">

<g transform="translate(0.000000,254.000000) scale(0.100000,-0.100000)"
fill="#000000" stroke="none">
<path d="M955 2168 c-125 -10 -286 -35 -329 -51 -49 -18 -84 -56 -105 -112
-34 -91 -111 -288 -128 -327 -14 -34 -43 -53 -43 -29 0 5 -15 19 -34 31 -30
18 -47 20 -133 18 l-98 -3 -3 -39 c-8 -93 54 -172 142 -180 27 -3 50 -7 52 -9
2 -2 -11 -30 -30 -61 -22 -37 -37 -77 -41 -109 -3 -29 -5 -242 -3 -473 l3
-422 25 -21 c22 -18 39 -20 133 -21 107 0 109 0 138 29 19 19 29 40 29 59 0
45 22 146 34 157 7 7 123 7 358 1 209 -5 487 -5 695 0 236 6 352 6 359 -1 12
-11 34 -112 34 -157 0 -19 10 -40 29 -59 29 -29 31 -29 139 -29 l110 0 26 31
26 31 0 431 c0 238 -5 449 -9 471 -5 21 -23 61 -41 88 -17 28 -29 52 -26 55 2
2 23 6 46 8 23 3 56 13 74 23 43 24 77 95 74 152 l-3 45 -98 3 c-86 2 -103 0
-133 -18 -19 -12 -34 -26 -34 -31 0 -24 -29 -5 -43 29 -17 39 -94 236 -128
327 -33 89 -73 113 -229 138 -219 36 -571 46 -835 25z m595 -153 c216 -16 309
-32 321 -55 10 -18 32 -73 49 -120 7 -19 19 -48 25 -65 7 -16 18 -46 25 -65 7
-19 19 -48 25 -65 41 -99 57 -146 52 -158 -3 -9 -29 -16 -69 -20 -353 -33
-449 -39 -708 -39 -261 0 -349 5 -708 39 -40 4 -66 11 -69 20 -5 12 11 59 52
158 6 17 18 46 25 65 7 19 18 49 25 65 7 17 21 53 30 80 36 109 44 119 110
133 74 15 374 39 515 40 58 1 193 -5 300 -13z m-905 -765 c72 -7 134 -16 140
-21 10 -10 -49 -137 -69 -151 -6 -4 -60 -8 -119 -8 -116 0 -152 10 -179 52
-17 27 -58 126 -58 141 0 10 46 8 285 -13z m1535 11 c0 -13 -42 -113 -58 -139
-27 -42 -63 -52 -179 -52 -59 0 -113 4 -119 8 -21 14 -79 141 -69 151 6 5 82
15 170 21 88 7 162 14 164 16 9 8 91 4 91 -5z m-530 -311 c18 -9 18 -12 -1
-72 -24 -83 -36 -104 -66 -117 -34 -15 -593 -15 -627 0 -28 13 -51 56 -70 130
-12 44 -11 51 3 59 22 13 737 13 761 0z"/>
</g>
</svg>
