<?xml version="1.0" standalone="no"?>
<!DOCTYPE svg PUBLIC "-//W3C//DTD SVG 20010904//EN"
 "http://www.w3.org/TR/2001/REC-SVG-20010904/DTD/svg10.dtd">
<svg version="1.0" xmlns="http://www.w3.org/2000/svg"
 width="254.000000pt" height="254.000000pt" viewBox="0 0 254.000000 254.000000"
 preserveAspectRatio="xMidYMid meet">

<g transform="translate(0.000000,254.000000) scale(0.100000,-0.100000)"
fill="#000000" stroke="none">
<path d="M1205 2434 c-226 -30 -317 -55 -458 -125 -159 -79 -345 -242 -440
-385 -268 -406 -268 -902 0 -1308 60 -91 218 -249 309 -309 306 -202 663 -253
1004 -145 188 60 327 145 470 288 98 97 166 191 219 296 165 333 165 715 0
1048 -53 106 -121 199 -219 296 -142 143 -282 228 -470 288 -127 40 -329 67
-415 56z m103 -206 c19 -19 16 -157 -5 -180 -20 -22 -41 -23 -65 -1 -14 13
-18 31 -18 93 0 83 9 100 50 100 14 0 31 -5 38 -12z m-467 -120 c9 -7 30 -37
48 -66 24 -38 31 -59 27 -77 -7 -27 -46 -48 -71 -39 -23 9 -85 115 -85 146 0
41 49 62 81 36z m920 2 c29 -16 23 -59 -16 -122 -38 -61 -62 -76 -95 -58 -35
19 -35 55 1 112 48 78 68 90 110 68z m-1193 -366 c54 -35 66 -63 40 -96 -24
-29 -46 -27 -104 8 -67 40 -74 48 -74 87 0 19 7 30 23 37 29 11 51 4 115 -36z
m1506 -9 c-5 -12 -73 -70 -234 -200 -21 -16 -84 -68 -140 -115 -319 -263 -354
-290 -392 -300 -104 -29 -216 76 -193 179 14 63 68 107 190 152 33 12 74 27
90 34 17 7 50 20 75 30 25 9 53 21 62 26 10 5 23 9 29 9 6 0 25 6 42 14 30 13
84 34 232 91 36 13 95 36 133 51 37 14 74 29 82 34 23 13 30 12 24 -5z m-1586
-421 c26 -18 28 -50 5 -76 -24 -27 -145 -26 -173 2 -11 11 -20 27 -20 35 0 8
9 24 20 35 26 26 133 28 168 4z m1732 -4 c11 -11 20 -27 20 -35 0 -8 -9 -24
-20 -35 -27 -27 -144 -29 -172 -3 -25 22 -23 59 4 77 35 24 142 22 168 -4z
m-1607 -411 c20 -32 -1 -66 -62 -103 -32 -20 -64 -36 -72 -36 -23 0 -49 32
-49 61 0 23 10 34 58 64 61 38 107 43 125 14z m1440 -15 c62 -39 74 -69 40
-106 -22 -25 -34 -23 -95 13 -60 35 -78 54 -78 84 0 55 54 59 133 9z"/>
</g>
</svg>
