<svg width="26" height="25" viewBox="0 0 26 25" fill="none" xmlns="http://www.w3.org/2000/svg">
<path d="M21.0073 4.6L24.7573 1" stroke="#666666" stroke-width="2" stroke-linecap="round" stroke-linejoin="round"/>
<path d="M5.13237 22.96C5.41108 23.2285 5.74225 23.4415 6.10691 23.5869C6.47156 23.7322 6.86252 23.8071 7.25737 23.8071C7.65221 23.8071 8.04317 23.7322 8.40782 23.5869C8.77248 23.4415 9.10366 23.2285 9.38237 22.96L12.2574 20.2L4.75737 13L1.88237 15.76C1.60269 16.0276 1.38078 16.3455 1.22936 16.6956C1.07794 17.0456 1 17.421 1 17.8C1 18.179 1.07794 18.5544 1.22936 18.9044C1.38078 19.2545 1.60269 19.5724 1.88237 19.84L5.13237 22.96Z" stroke="#666666" stroke-width="2" stroke-linecap="round" stroke-linejoin="round"/>
<path d="M6.63232 14.8L9.75732 11.8" stroke="#666666" stroke-width="2" stroke-linecap="round" stroke-linejoin="round"/>
<path d="M10.3823 18.3999L13.5073 15.3999" stroke="#666666" stroke-width="2" stroke-linecap="round" stroke-linejoin="round"/>
<path d="M12.2573 5.79994L19.7573 12.9999L22.6323 10.2399C22.912 9.97238 23.1339 9.65445 23.2853 9.30438C23.4367 8.95431 23.5147 8.57899 23.5147 8.19994C23.5147 7.82089 23.4367 7.44557 23.2853 7.0955C23.1339 6.74544 22.912 6.4275 22.6323 6.15994L19.3823 3.03994C19.1036 2.77145 18.7724 2.55842 18.4078 2.41306C18.0431 2.2677 17.6522 2.19287 17.2573 2.19287C16.8625 2.19287 16.4715 2.2677 16.1069 2.41306C15.7422 2.55842 15.411 2.77145 15.1323 3.03994L12.2573 5.79994Z" stroke="#666666" stroke-width="2" stroke-linecap="round" stroke-linejoin="round"/>
</svg>
