<svg width="21" height="21" viewBox="0 0 21 21" fill="none" xmlns="http://www.w3.org/2000/svg">
<path d="M15.9503 19.7499V8.75022C15.9503 8.48501 15.8502 8.23066 15.672 8.04313C15.4939 7.8556 15.2522 7.75024 15.0003 7.75024H5.50029C5.24834 7.75024 5.0067 7.8556 4.82854 8.04313C4.65038 8.23066 4.55029 8.48501 4.55029 8.75022V19.7499" stroke="#666666" stroke-width="1.5" stroke-linecap="round" stroke-linejoin="round"/>
<path d="M19.75 17.7499C19.75 18.2804 19.5498 18.7891 19.1935 19.1641C18.8372 19.5392 18.3539 19.7499 17.85 19.7499H2.65C2.14609 19.7499 1.66282 19.5392 1.3065 19.1641C0.950178 18.7891 0.75 18.2804 0.75 17.7499V6.75023C0.74979 6.37361 0.850612 6.00459 1.04086 5.68563C1.23111 5.36666 1.50306 5.11073 1.8254 4.94728L9.3779 0.97338C9.64762 0.826599 9.94684 0.75 10.2505 0.75C10.5541 0.75 10.8533 0.826599 11.123 0.97338L18.6737 4.94728C18.9962 5.11059 19.2683 5.36646 19.4587 5.68543C19.6492 6.00441 19.7501 6.37351 19.75 6.75023V17.7499Z" stroke="#666666" stroke-width="1.5" stroke-linecap="round" stroke-linejoin="round"/>
<path d="M4.55029 11.7502H15.9503" stroke="#666666" stroke-width="1.5" stroke-linecap="round" stroke-linejoin="round"/>
<path d="M4.55029 15.75H15.9503" stroke="#666666" stroke-width="1.5" stroke-linecap="round" stroke-linejoin="round"/>
</svg>
