<?xml version="1.0" standalone="no"?>
<!DOCTYPE svg PUBLIC "-//W3C//DTD SVG 20010904//EN"
 "http://www.w3.org/TR/2001/REC-SVG-20010904/DTD/svg10.dtd">
<svg version="1.0" xmlns="http://www.w3.org/2000/svg"
 width="254.000000pt" height="254.000000pt" viewBox="0 0 254.000000 254.000000"
 preserveAspectRatio="xMidYMid meet">

<g transform="translate(0.000000,254.000000) scale(0.100000,-0.100000)"
fill="#000000" stroke="none">
<path d="M1193 2187 c-6 -7 -26 -23 -44 -37 -18 -14 -37 -29 -43 -35 -18 -17
-79 -68 -126 -105 -24 -19 -63 -53 -88 -75 -25 -22 -54 -47 -66 -55 -12 -8
-38 -30 -59 -49 -21 -20 -48 -42 -61 -51 -26 -18 -58 -45 -95 -80 -14 -14 -44
-39 -66 -55 -22 -16 -44 -34 -50 -39 -13 -14 -71 -63 -118 -100 -30 -24 -37
-36 -37 -64 0 -18 6 -40 14 -48 19 -19 75 -18 97 2 10 9 23 13 28 9 8 -4 11
-131 11 -395 0 -241 4 -391 10 -395 5 -3 17 -21 26 -40 9 -19 30 -40 49 -49
19 -9 37 -21 40 -26 10 -16 443 -13 459 3 8 6 23 19 35 27 20 14 21 21 21 251
0 288 -10 269 142 269 89 0 107 -3 121 -18 15 -16 17 -49 17 -253 0 -228 1
-235 21 -249 12 -8 27 -21 35 -28 16 -15 449 -18 459 -2 3 5 21 17 40 26 19 9
40 30 49 49 9 19 21 37 26 40 6 4 10 154 10 395 0 264 3 391 11 395 5 4 18 0
28 -9 22 -20 78 -21 97 -2 8 8 14 30 14 48 0 28 -7 40 -37 64 -21 16 -55 44
-75 63 l-38 33 0 183 c0 218 2 215 -106 215 -93 0 -104 -13 -104 -115 0 -105
-14 -107 -106 -17 -13 12 -28 22 -34 22 -6 0 -13 7 -16 15 -4 8 -10 15 -15 15
-4 0 -21 12 -37 28 -15 15 -48 43 -72 62 -69 55 -113 93 -137 117 -12 13 -26
23 -30 23 -5 0 -20 11 -35 25 -23 21 -36 25 -90 25 -36 -1 -68 -6 -75 -13z"/>
</g>
</svg>
