<?xml version="1.0" standalone="no"?>
<!DOCTYPE svg PUBLIC "-//W3C//DTD SVG 20010904//EN"
 "http://www.w3.org/TR/2001/REC-SVG-20010904/DTD/svg10.dtd">
<svg version="1.0" xmlns="http://www.w3.org/2000/svg"
 width="254.000000pt" height="254.000000pt" viewBox="0 0 254.000000 254.000000"
 preserveAspectRatio="xMidYMid meet">

<g transform="translate(0.000000,254.000000) scale(0.100000,-0.100000)"
fill="#000000" stroke="none">
<path d="M1124 2324 c-7 -3 -29 -51 -49 -107 -20 -56 -41 -111 -45 -122 -5
-11 -13 -33 -18 -50 -6 -16 -22 -61 -37 -100 -14 -38 -35 -95 -45 -125 -10
-30 -30 -86 -45 -125 -14 -38 -42 -115 -62 -170 -19 -55 -55 -153 -79 -217
-24 -65 -44 -122 -44 -128 0 -7 86 -10 254 -10 252 0 281 -4 259 -33 -5 -7
-22 -46 -38 -87 -34 -91 -133 -347 -144 -375 -8 -19 -33 -83 -51 -130 -14 -37
-42 -110 -50 -130 -72 -178 -74 -186 -60 -195 17 -11 100 -13 124 -4 16 6 37
34 291 385 83 114 239 329 348 478 108 150 197 276 197 281 0 6 -88 10 -226
10 l-226 0 6 25 c3 13 24 63 46 110 22 47 40 88 40 90 0 2 16 38 35 79 19 42
35 78 35 80 0 3 18 43 40 90 22 47 40 87 40 90 0 3 18 44 40 91 22 47 40 88
40 90 0 2 16 39 36 82 54 116 55 120 38 127 -18 7 -634 7 -650 0z"/>
</g>
</svg>
