<?xml version="1.0" standalone="no"?>
<!DOCTYPE svg PUBLIC "-//W3C//DTD SVG 20010904//EN"
 "http://www.w3.org/TR/2001/REC-SVG-20010904/DTD/svg10.dtd">
<svg version="1.0" xmlns="http://www.w3.org/2000/svg"
 width="254.000000pt" height="254.000000pt" viewBox="0 0 254.000000 254.000000"
 preserveAspectRatio="xMidYMid meet">

<g transform="translate(0.000000,254.000000) scale(0.100000,-0.100000)"
fill="#000000" stroke="none">
<path d="M1820 2483 c-154 -20 -253 -67 -345 -164 -129 -137 -176 -312 -130
-489 34 -133 75 -187 319 -430 l187 -185 218 220 c198 199 221 227 253 295 87
184 69 369 -52 545 -38 55 -114 117 -189 154 -68 34 -203 62 -261 54z m149
-348 c62 -41 91 -97 91 -174 0 -91 -37 -153 -112 -192 -43 -22 -150 -26 -184
-6 -96 56 -135 136 -119 243 5 39 16 56 59 100 59 58 74 64 162 60 46 -3 70
-10 103 -31z"/>
<path d="M907 1993 c-4 -3 -7 -342 -7 -753 0 -699 1 -748 18 -762 9 -8 51 -29
92 -48 41 -18 117 -53 168 -77 50 -24 94 -43 97 -43 2 0 43 -18 90 -41 48 -22
93 -38 101 -35 12 5 14 88 14 561 l0 556 -100 105 c-84 88 -108 121 -144 197
-25 51 -50 119 -57 152 -14 67 -25 95 -39 95 -5 0 -58 23 -116 50 -120 56
-108 52 -117 43z"/>
<path d="M665 1919 c-52 -22 -59 -25 -135 -54 -149 -57 -195 -89 -233 -159
-22 -41 -22 -42 -25 -745 -1 -388 1 -708 5 -711 7 -6 190 60 388 140 l70 29 3
738 c1 406 0 748 -3 761 -7 27 -7 27 -70 1z"/>
<path d="M2010 1135 c-80 -80 -149 -145 -155 -145 -6 0 -51 41 -100 90 -49 50
-93 89 -98 87 -9 -3 -11 -932 -2 -947 8 -14 257 -13 330 1 67 12 116 45 151
101 l24 37 1 456 c0 251 -1 458 -3 460 -2 3 -69 -61 -148 -140z"/>
</g>
</svg>
