<?xml version="1.0" standalone="no"?>
<!DOCTYPE svg PUBLIC "-//W3C//DTD SVG 20010904//EN"
 "http://www.w3.org/TR/2001/REC-SVG-20010904/DTD/svg10.dtd">
<svg version="1.0" xmlns="http://www.w3.org/2000/svg"
 width="50.000000pt" height="50.000000pt" viewBox="0 0 50.000000 50.000000"
 preserveAspectRatio="xMidYMid meet">

<g transform="translate(0.000000,50.000000) scale(0.100000,-0.100000)"
fill="#000000" stroke="none">
<path d="M246 422 c-3 -3 -6 -61 -6 -130 l0 -124 -24 6 c-33 8 -84 -12 -91
-36 -23 -71 67 -114 128 -60 14 13 17 33 17 124 0 59 1 108 3 108 1 0 24 -7
51 -15 27 -8 53 -15 58 -15 13 0 9 97 -4 107 -18 14 -125 42 -132 35z"/>
</g>
</svg>
